<?xml version="1.0" encoding="UTF-8"?>
<svg version="1.1" xmlns="http://www.w3.org/2000/svg" width="305" height="385">
<path d="M0 0 C100.65 0 201.3 0 305 0 C305 127.05 305 254.1 305 385 C204.35 385 103.7 385 0 385 C0 257.95 0 130.9 0 0 Z " fill="#FEFEFE" transform="translate(0,0)"/>
<path d="M0 0 C100.65 0 201.3 0 305 0 C305 127.05 305 254.1 305 385 C204.35 385 103.7 385 0 385 C0 383.68 0 382.36 0 381 C73.59 381 147.18 381 223 381 C223 274.08 223 167.16 223 57 C242.47 57 261.94 57 282 57 C281.9071875 48.8634375 281.9071875 48.8634375 281.8125 40.5625 C281.80581299 38.86939697 281.79912598 37.17629395 281.79223633 35.43188477 C281.67105365 27.16669859 280.9679228 20.86541335 276 14 C275.66331299 13.28529541 275.32662598 12.57059082 274.97973633 11.83422852 C273.56501644 9.18563881 271.78141491 9.0114236 269 8 C266.99384866 6.67594012 264.99330842 5.34331654 263 4 C260.28872589 3.09624196 258.72539875 2.87272807 255.94185543 2.86577892 C255.11300113 2.86132108 254.28414682 2.85686324 253.43017572 2.85227031 C252.06444676 2.85254685 252.06444676 2.85254685 250.67112732 2.85282898 C249.70373424 2.84915229 248.73634116 2.8454756 247.73963314 2.8416875 C244.48323645 2.83063439 241.22687165 2.82680403 237.97045898 2.82299805 C235.64144285 2.81673455 233.31242772 2.81008785 230.9834137 2.80308533 C224.64428257 2.78566331 218.305159 2.77511993 211.96600986 2.7668798 C208.00581719 2.76173139 204.04562688 2.75565554 200.08543587 2.74936867 C189.11618943 2.73249635 178.14694507 2.71786243 167.17768764 2.71061993 C164.33126766 2.70871009 161.48484769 2.70678975 158.63842773 2.70483398 C157.93098103 2.70435024 157.22353432 2.7038665 156.49464983 2.7033681 C145.04286123 2.69507364 133.59117727 2.66974724 122.13943433 2.63725331 C110.37585988 2.60414746 98.61233854 2.58616789 86.84871727 2.58297569 C80.2464865 2.58062514 73.64442105 2.57166401 67.04223442 2.54651451 C60.8279891 2.523226 54.61401787 2.51900394 48.39974022 2.52927589 C46.12216022 2.52977119 43.8445667 2.52345256 41.56702805 2.50971985 C38.45027803 2.49198269 35.33450965 2.49911673 32.21775818 2.51225281 C30.8754518 2.49579894 30.8754518 2.49579894 29.50602812 2.47901267 C22.94383096 2.54548527 17.94183485 4.32352426 12 7 C11.01 7.33 10.02 7.66 9 8 C9 8.66 9 9.32 9 10 C8.34 10 7.68 10 7 10 C6.67 10.99 6.34 11.98 6 13 C5.34 13 4.68 13 4 13 C3.855625 13.78375 3.71125 14.5675 3.5625 15.375 C3 18 3 18 2 20 C1.90033627 21.90201004 1.86609974 23.80756193 1.8613348 25.71217537 C1.85586036 26.93534592 1.85038591 28.15851647 1.84474558 29.41875279 C1.84366924 30.78845598 1.84268457 32.15815924 1.84178162 33.52786255 C1.83721867 34.97327019 1.83221904 36.41867651 1.82681805 37.86408126 C1.8131971 41.8501105 1.80580718 45.83613118 1.79939139 49.82217765 C1.79140477 54.11530805 1.77770104 58.40842054 1.76467896 62.70153809 C1.74289148 70.14436407 1.72475532 77.58719185 1.70907402 85.03003311 C1.68639604 95.79123477 1.65825037 106.55241661 1.62875474 117.31360148 C1.58105338 134.77139616 1.53779611 152.22919892 1.49731445 169.68701172 C1.45797246 186.64925771 1.41654936 203.6114965 1.37231445 220.57373047 C1.36959018 221.61865347 1.36686591 222.66357648 1.36405908 223.74016382 C1.35037982 228.98204758 1.3366595 234.22393123 1.32291877 239.46581483 C1.20891404 282.97719489 1.10211354 326.48859051 1 370 C0.67 370 0.34 370 0 370 C0 247.9 0 125.8 0 0 Z " fill="#577BF0" transform="translate(0,0)"/>
<path d="M0 0 C1.14203796 0.7237916 2.26911716 1.47208732 3.375 2.25 C4.921875 3.0853125 4.921875 3.0853125 6.5 3.9375 C10.441559 7.10788442 12.83898903 10.91128243 15.375 15.25 C15.72771973 15.79430664 16.08043945 16.33861328 16.44384766 16.89941406 C17.77532596 20.26057638 17.62133168 23.51963759 17.5703125 27.078125 C17.56829834 27.74247559 17.56628418 28.40682617 17.56420898 29.09130859 C17.55378502 31.56094314 17.52586245 34.03047887 17.5 36.5 C17.45875 42.0275 17.4175 47.555 17.375 53.25 C-2.095 53.25 -21.565 53.25 -41.625 53.25 C-41.79 47.3925 -41.955 41.535 -42.125 35.5 C-42.19783203 33.67758789 -42.27066406 31.85517578 -42.34570312 29.97753906 C-42.56772449 20.43561237 -41.72569437 14.31973594 -35.8762207 6.50952148 C-27.47777375 -1.91989252 -10.93760375 -5.43682058 0 0 Z " fill="#C9C7C6" transform="translate(264.625,3.75)"/>
<path d="M0 0 C10.66101695 -0.43220339 10.66101695 -0.43220339 16 3 C16.70898438 3.391875 17.41796875 3.78375 18.1484375 4.1875 C20 6 20 6 20.390625 9.13671875 C20.34421875 10.30847656 20.2978125 11.48023438 20.25 12.6875 C20.21390625 13.86699219 20.1778125 15.04648437 20.140625 16.26171875 C20.09421875 17.16535156 20.0478125 18.06898437 20 19 C19.360625 19.268125 18.72125 19.53625 18.0625 19.8125 C15.66868314 20.88667752 15.66868314 20.88667752 15 24 C11.55005651 25.4378849 7.80084436 25.1201454 4.12011719 25.11352539 C3.09511612 25.11374443 3.09511612 25.11374443 2.04940796 25.1139679 C-0.20146904 25.11327315 -2.45226252 25.10550132 -4.703125 25.09765625 C-6.2668249 25.09579051 -7.83052538 25.09436734 -9.39422607 25.09336853 C-13.50416689 25.08955562 -17.61407221 25.0797358 -21.72399902 25.06866455 C-25.92016113 25.05842407 -30.11632899 25.05386526 -34.3125 25.04882812 C-42.54168293 25.03811242 -50.77083705 25.02105073 -59 25 C-59 21.37 -59 17.74 -59 14 C-39.53 14 -20.06 14 0 14 C0 9.38 0 4.76 0 0 Z " fill="#545A66" transform="translate(282,43)"/>
<path d="M0 0 C0.71607422 -0.01224609 1.43214844 -0.02449219 2.16992188 -0.03710938 C5.96223108 -0.04765333 8.84849094 0.06440785 12.0625 2.1875 C11.4025 2.5175 10.7425 2.8475 10.0625 3.1875 C9.0725 2.8575 8.0825 2.5275 7.0625 2.1875 C1.48574984 1.80289654 -2.6294625 2.48648604 -7.859375 4.43359375 C-9.9375 5.1875 -9.9375 5.1875 -12.140625 5.6484375 C-12.73359375 5.82632812 -13.3265625 6.00421875 -13.9375 6.1875 C-15.01004351 8.44975382 -15.01004351 8.44975382 -15.9375 11.1875 C-16.618125 12.13625 -17.29875 13.085 -18 14.0625 C-21.26496844 19.32857814 -21.08125081 25.35376256 -21.47265625 31.43359375 C-21.55136963 32.6342749 -21.63008301 33.83495605 -21.71118164 35.07202148 C-21.8064917 36.57450439 -21.90180176 38.0769873 -22 39.625 C-22.309375 44.430625 -22.61875 49.23625 -22.9375 54.1875 C-5.7775 54.1875 11.3825 54.1875 29.0625 54.1875 C28.7325 42.9675 28.4025 31.7475 28.0625 20.1875 C28.7225 20.5175 29.3825 20.8475 30.0625 21.1875 C30.0625 32.4075 30.0625 43.6275 30.0625 55.1875 C10.5925 55.1875 -8.8775 55.1875 -28.9375 55.1875 C-29.1025 49.33 -29.2675 43.4725 -29.4375 37.4375 C-29.51033203 35.61508789 -29.58316406 33.79267578 -29.65820312 31.91503906 C-29.88022449 22.37311237 -29.03819437 16.25723594 -23.1887207 8.44702148 C-16.74292785 1.97746147 -8.85859808 0.00793071 0 0 Z " fill="#B1B1B1" transform="translate(251.9375,1.8125)"/>
<path d="M0 0 C1.32 0.33 2.64 0.66 4 1 C4 2.98 4 4.96 4 7 C0.62174514 9.03923771 -1.95500822 9.24378202 -5.87011719 9.22705078 C-7.64150055 9.22682419 -7.64150055 9.22682419 -9.44866943 9.22659302 C-11.35353119 9.21110916 -11.35353119 9.21110916 -13.296875 9.1953125 C-14.60078186 9.1924826 -15.90468872 9.18965271 -17.24810791 9.18673706 C-20.7070895 9.17911721 -24.16590193 9.15948308 -27.62481689 9.1373291 C-31.15740674 9.11683503 -34.69002403 9.10772774 -38.22265625 9.09765625 C-45.14850679 9.07623548 -52.07424526 9.04211956 -59 9 C-59 7.35 -59 5.7 -59 4 C-39.53 4 -20.06 4 0 4 C0 2.68 0 1.36 0 0 Z " fill="#242731" transform="translate(282,53)"/>
<path d="M0 0 C1.98 0 3.96 0 6 0 C6 1.98 6 3.96 6 6 C4.02 6 2.04 6 0 6 C0 4.02 0 2.04 0 0 Z " fill="#4A4E58" transform="translate(223,62)"/>
</svg>
